<svg t="1646961523195" class="icon" viewBox="0 0 2874 1024" version="1.1" xmlns="http://www.w3.org/2000/svg" p-id="5573" width="48" height="32"><path d="M2873.45449 645.476966l0 352.017332-280.397667 0c23.53705-44.002202 35.817267-92.097536 35.817267-144.286208 0-168.845517-134.058701-309.03849-300.864614-317.22496-7.163494-3.069952-12.280218-4.093235-17.396941-4.093235-7.163494 0-10.233446 1.023283-17.396941 4.093235-166.805914 8.18647-299.841331 148.379443-299.841331 317.22496 0 52.18857 11.256832 100.284006 34.793882 144.286208l-1182.991617 0c23.53705-44.002202 35.817267-92.097536 35.817267-144.286208 0-168.845517-133.035418-309.03849-300.864614-317.22496-5.116723-3.069952-9.210163-4.093235-16.373555-4.093235-5.116723 0-10.233446 1.023283-17.396941 4.093235-166.805914 8.18647-300.864614 148.379443-300.864614 317.22496 0 52.18857 13.303501 100.284006 34.793882 144.286208l-279.374318 0 0-352.017332 0-218.987526 0-1.023306c0-5.116518 0-8.18647 1.023386-9.209754 3.070054-121.773466 22.513664-312.108442 123.825254-369.41353 116.66176-66.514944 224.113459 54.235238 245.60384 79.817933 152.479027 170.892186 316.214886 385.78647 615.032832 385.78647l70.611091 0 379.662535 0 1.023349 0 378.639185 0 71.63444 0c297.79456 0 462.553805-214.894285 614.009446-385.78647 20.466995-23.536026 130.988646-148.379443 245.60384-79.817933 102.334874 58.328474 121.778586 246.616781 124.84864 369.41353l0 9.209756 0 1.023306 0 218.987526L2873.454481 645.476969zM1527.750349 826.602189c17.396941-21.489459 4.09344-40.93225-31.723827-40.93225l-117.685152 0c-33.770496 0-49.120768 19.44279-32.747213 40.93225l33.770496 47.072051c13.303501 19.44279 27.630387 39.908966 38.887219 53.211955 3.070054 3.069952 5.116723 7.163187 18.420326 7.163187s16.373555-4.093235 19.44361-7.163187c9.210163-13.302989 23.53705-33.769062 38.887219-53.211955L1527.750349 826.602189zM564.778701 535.983206l15.350237 0c49.120768 24.559309 86.984704 157.589197 86.984704 318.248243 0 52.18857-4.09344 100.284006-12.280218 143.262822l-184.202847 0c-7.163494-44.002202-11.256832-91.074253-11.256832-143.262822 0-160.659046 37.863936-293.688832 86.984704-318.248243L564.778798 535.983206zM2310.61248 535.983206l17.396936 0c48.097382 24.559309 85.961318 158.61248 85.961318 318.248243 0 52.18857-4.09344 99.260723-11.256832 143.262822l-184.202847 0c-7.163494-44.002202-10.233446-91.074253-10.233446-143.262822 0-160.659046 35.817267-293.688832 84.937933-318.248243L2310.612448 535.983206z" p-id="5574"></path></svg>
